<svg width="640" height="558" viewBox="0 0 640 558" fill="none" xmlns="http://www.w3.org/2000/svg">
<path d="M296.516 558C447.55 558 569.987 553.23 569.987 547.345C569.987 541.461 447.55 536.69 296.516 536.69C145.483 536.69 23.0458 541.461 23.0458 547.345C23.0458 553.23 145.483 558 296.516 558Z" fill="#E3E5FC"/>
<path d="M547.112 431.57H25.59C11.5144 431.57 0 420.055 0 405.98V25.59C0 11.5144 11.5144 0 25.59 0H547.112C561.187 0 572.702 11.5144 572.702 25.59V405.98C572.702 420.055 561.187 431.57 547.112 431.57Z" fill="#A7ADFF"/>
<path d="M531.112 395.575H39.1137C25.038 395.575 13.5237 384.061 13.5237 369.985V44.3614C13.5237 30.2857 25.038 18.7714 39.1137 18.7714H531.112C545.188 18.7714 556.702 30.2857 556.702 44.3614V369.985C556.708 384.055 545.194 395.575 531.112 395.575Z" fill="#E3E5FC"/>
<path d="M316.603 411.888H276.436C275.457 411.888 274.66 411.085 274.66 410.112C274.66 409.133 275.463 408.336 276.436 408.336H316.603C317.581 408.336 318.378 409.138 318.378 410.112C318.378 411.085 317.576 411.888 316.603 411.888Z" fill="#E3E5FC"/>
<path d="M30.5532 14.4968C32.7599 14.4968 34.5488 12.7079 34.5488 10.5012C34.5488 8.2945 32.7599 6.50562 30.5532 6.50562C28.3465 6.50562 26.5576 8.2945 26.5576 10.5012C26.5576 12.7079 28.3465 14.4968 30.5532 14.4968Z" fill="#E3E5FC"/>
<path d="M47.7593 14.4968C49.966 14.4968 51.7549 12.7079 51.7549 10.5012C51.7549 8.2945 49.966 6.50562 47.7593 6.50562C45.5526 6.50562 43.7637 8.2945 43.7637 10.5012C43.7637 12.7079 45.5526 14.4968 47.7593 14.4968Z" fill="white"/>
<path d="M65.1191 14.4968C67.3258 14.4968 69.1147 12.7079 69.1147 10.5012C69.1147 8.2945 67.3258 6.50562 65.1191 6.50562C62.9124 6.50562 61.1235 8.2945 61.1235 10.5012C61.1235 12.7079 62.9124 14.4968 65.1191 14.4968Z" fill="#4B369D"/>
<path d="M481.042 237.049H383.651C381.039 237.049 378.898 234.909 378.898 232.297C378.898 229.684 381.039 227.544 383.651 227.544H481.042C483.655 227.544 485.795 229.684 485.795 232.297C485.789 234.909 483.655 237.049 481.042 237.049Z" fill="white"/>
<path d="M481.042 258.803H383.651C381.038 258.803 378.898 256.663 378.898 254.05C378.898 251.438 381.038 249.298 383.651 249.298H481.042C483.655 249.298 485.795 251.438 485.795 254.05C485.789 256.669 483.655 258.803 481.042 258.803Z" fill="white"/>
<path d="M481.042 280.562H383.651C381.038 280.562 378.898 278.422 378.898 275.81C378.898 273.197 381.038 271.057 383.651 271.057H481.042C483.655 271.057 485.795 273.197 485.795 275.81C485.789 278.422 483.655 280.562 481.042 280.562Z" fill="white"/>
<path d="M481.042 305.088H383.651C381.038 305.088 378.898 302.948 378.898 300.335C378.898 297.723 381.038 295.583 383.651 295.583H481.042C483.655 295.583 485.795 297.723 485.795 300.335C485.789 302.954 483.655 305.088 481.042 305.088Z" fill="white"/>
<path d="M481.042 326.848H383.651C381.038 326.848 378.898 324.708 378.898 322.095C378.898 319.482 381.038 317.342 383.651 317.342H481.042C483.655 317.342 485.795 319.482 485.795 322.095C485.789 324.708 483.655 326.848 481.042 326.848Z" fill="white"/>
<path d="M481.042 348.607H383.651C381.038 348.607 378.898 346.467 378.898 343.854C378.898 341.242 381.038 339.102 383.651 339.102H481.042C483.655 339.102 485.795 341.242 485.795 343.854C485.789 346.467 483.655 348.607 481.042 348.607Z" fill="white"/>
<path d="M86.7192 180.815H288.161C302.236 180.815 313.751 169.301 313.751 155.225V82.4278C313.751 68.3521 302.236 56.8378 288.161 56.8378H86.7192C72.6435 56.8378 61.1292 68.3521 61.1292 82.4278V155.225C61.1235 169.301 72.6378 180.815 86.7192 180.815Z" fill="white"/>
<path d="M66.616 348.67C63.9864 348.67 61.8292 346.518 61.8292 343.883V233.822C61.8292 231.192 63.9807 229.035 66.616 229.035C69.2455 229.035 71.4027 231.187 71.4027 233.822V343.883C71.4027 346.518 69.2455 348.67 66.616 348.67Z" fill="#D7384E"/>
<path d="M89.5366 348.67C86.907 348.67 84.7499 346.518 84.7499 343.883V294.769C84.7499 292.139 86.9014 289.982 89.5366 289.982C92.1662 289.982 94.3234 292.134 94.3234 294.769V343.883C94.3234 346.518 92.1662 348.67 89.5366 348.67Z" fill="#D7384E"/>
<path d="M112.457 348.67C109.828 348.67 107.67 346.518 107.67 343.883V247.926C107.67 245.296 109.822 243.139 112.457 243.139C115.087 243.139 117.244 245.291 117.244 247.926V343.883C117.238 346.518 115.087 348.67 112.457 348.67Z" fill="#D7384E"/>
<path d="M135.372 348.67C132.742 348.67 130.585 346.518 130.585 343.883V308.623C130.585 305.993 132.737 303.836 135.372 303.836C138.002 303.836 140.159 305.987 140.159 308.623V343.883C140.159 346.518 138.007 348.67 135.372 348.67Z" fill="#D7384E"/>
<path d="M158.292 348.67C155.663 348.67 153.506 346.518 153.506 343.883V284.444C153.506 281.815 155.657 279.657 158.292 279.657C160.922 279.657 163.079 281.809 163.079 284.444V343.883C163.079 346.518 160.928 348.67 158.292 348.67Z" fill="#D7384E"/>
<path d="M181.213 348.67C178.584 348.67 176.426 346.518 176.426 343.883V326.273C176.426 323.643 178.578 321.486 181.213 321.486C183.843 321.486 186 323.637 186 326.273V343.883C186 346.518 183.843 348.67 181.213 348.67Z" fill="#D7384E"/>
<path d="M93.9134 143.255C107.431 161.861 133.471 165.988 152.071 152.47L103.123 85.0968C84.5221 98.609 80.3956 124.649 93.9134 143.255Z" fill="#A7ADFF"/>
<path d="M107.505 81.9095L129.931 112.776L161.395 89.9177C148.634 73.0645 124.689 69.4275 107.505 81.9095Z" fill="#A7ADFF"/>
<path d="M176.011 87.2825C175.806 86.998 175.567 86.7475 175.356 86.4686L133.107 117.158L164.445 160.296C187.804 143.323 192.978 110.636 176.011 87.2825Z" fill="#FDC510"/>
<path d="M211.385 88.9162C211.385 86.133 213.662 83.8506 216.451 83.8506H284.382C287.165 83.8506 289.447 86.1273 289.447 88.9162C289.447 91.6995 287.171 93.9819 284.382 93.9819H216.451C213.662 93.9819 211.385 91.6995 211.385 88.9162Z" fill="#FDC510"/>
<path d="M211.385 113.174C211.385 110.391 213.662 108.109 216.451 108.109H239.485C242.268 108.109 244.551 110.385 244.551 113.174C244.551 115.958 242.274 118.24 239.485 118.24H216.451C213.662 118.24 211.385 115.958 211.385 113.174Z" fill="#A7ADFF"/>
<path fill-rule="evenodd" clip-rule="evenodd" d="M195.107 272.577C195.107 297.763 215.597 318.253 240.783 318.253C265.969 318.253 286.459 297.763 286.459 272.577C286.459 247.391 265.969 226.901 240.783 226.901C215.597 226.901 195.107 247.391 195.107 272.577ZM199.37 272.577C199.37 249.747 217.948 231.17 240.783 231.17C263.618 231.17 282.19 249.742 282.19 272.577C282.19 295.412 263.618 313.99 240.783 313.99C217.948 313.99 199.37 295.412 199.37 272.577Z" fill="#978CFF"/>
<path fill-rule="evenodd" clip-rule="evenodd" d="M210.036 272.577C210.036 289.533 223.827 303.324 240.783 303.324C257.739 303.324 271.53 289.533 271.53 272.577C271.53 255.621 257.739 241.83 240.783 241.83C223.827 241.83 210.036 255.621 210.036 272.577ZM214.299 272.577C214.299 257.978 226.184 246.099 240.783 246.099C255.388 246.099 267.261 257.978 267.261 272.577C267.261 287.182 255.382 299.06 240.783 299.06C226.178 299.06 214.299 287.176 214.299 272.577Z" fill="#978CFF"/>
<path fill-rule="evenodd" clip-rule="evenodd" d="M223.15 272.577C223.15 282.298 231.062 290.21 240.783 290.21C250.504 290.21 258.416 282.298 258.416 272.577C258.416 262.855 250.51 254.944 240.783 254.944C231.056 254.944 223.15 262.855 223.15 272.577ZM227.419 272.577C227.419 265.206 233.412 259.213 240.783 259.213C248.154 259.213 254.147 265.206 254.147 272.577C254.147 279.948 248.154 285.941 240.783 285.941C233.412 285.941 227.419 279.948 227.419 272.577Z" fill="#978CFF"/>
<path d="M238.478 276.408L238.967 265.553C239.024 264.375 240.009 263.47 241.193 263.516C242.371 263.567 243.282 264.569 243.23 265.741L243.094 268.746L313.819 227.197C314.838 226.599 316.141 226.941 316.739 227.954C317.337 228.967 316.995 230.276 315.982 230.874L238.478 276.408Z" fill="#FDC510"/>
<path d="M248.068 276.823H240.783C239.605 276.823 238.649 275.867 238.649 274.688C238.649 273.51 239.605 272.554 240.783 272.554H248.068C249.247 272.554 250.203 273.51 250.203 274.688C250.203 275.867 249.247 276.823 248.068 276.823Z" fill="#FDC510"/>
<path d="M370.31 181.538C369.962 181.538 369.61 181.452 369.285 181.276C368.249 180.707 367.874 179.415 368.443 178.379L385.951 146.5L399.935 159.881L409.258 145.094L417.437 150.045L437 101.506L450.631 125.691L463.46 106.692L474.28 119.965L496.165 79.6615C496.86 78.3809 497.776 76.9807 498.744 75.4952C499.54 74.2715 500.388 72.9738 501.128 71.7102C500.303 72.0688 499.461 72.4615 498.658 72.8372C497.173 73.5315 495.772 74.1861 494.509 74.613C493.399 74.9886 492.187 74.3853 491.805 73.2697C491.43 72.1541 492.033 70.9418 493.149 70.5662C494.184 70.219 495.476 69.6156 496.848 68.9725C499.569 67.7032 502.375 66.3884 504.862 66.1949L507.896 65.9615L507.082 68.8928C506.291 71.733 504.27 74.8293 502.312 77.8288C501.39 79.2404 500.519 80.5722 499.91 81.6992L474.992 127.592L463.779 113.835L450.301 133.796L437.631 111.325L419.509 156.284L410.624 150.905L400.755 166.563L387.015 153.415L372.182 180.428C371.795 181.139 371.067 181.538 370.31 181.538Z" fill="#5A54FF"/>
<path d="M506.274 81.1127C505.095 81.1127 504.139 80.1565 504.139 78.9783V68.312C504.139 67.1338 505.095 66.1776 506.274 66.1776C507.452 66.1776 508.408 67.1338 508.408 68.312V78.9783C508.408 80.1565 507.452 81.1127 506.274 81.1127Z" fill="#5A54FF"/>
<path d="M368.181 193.974C367.009 193.974 366.047 193.012 366.047 191.84V55.7051C366.047 54.5326 367.009 53.5707 368.181 53.5707C369.354 53.5707 370.315 54.5326 370.315 55.7051V191.846C370.315 193.018 369.354 193.974 368.181 193.974Z" fill="#A7ADFF"/>
<path d="M355.209 181.538C355.209 180.365 356.171 179.403 357.344 179.403H493.484C494.657 179.403 495.619 180.365 495.619 181.538C495.619 182.71 494.657 183.672 493.484 183.672H357.338C356.166 183.666 355.209 182.71 355.209 181.538Z" fill="#A7ADFF"/>
<path d="M447.182 87.0892H407.551C403.64 87.0892 400.442 83.8904 400.442 79.9802C400.442 76.07 403.64 72.8712 407.551 72.8712H447.182C451.092 72.8712 454.291 76.07 454.291 79.9802C454.291 83.8904 451.092 87.0892 447.182 87.0892Z" fill="#D7384E"/>
<rect x="474.104" y="118.24" width="1.59938" height="2.1344" fill="#4B369D"/>
<path fill-rule="evenodd" clip-rule="evenodd" d="M474.104 90.1399H475.703V86.1272H474.104V90.1399ZM475.703 98.165H474.104V94.1523H475.703V98.165ZM474.104 106.196H475.703V102.183H474.104V106.196ZM474.104 114.227H475.703V110.214H474.104V114.227Z" fill="#4B369D"/>
<path d="M475.703 82.1089H474.104V80.777H472.772V79.1776H475.703V82.1089Z" fill="#4B369D"/>
<rect x="461.872" y="79.1776" width="5.45268" height="1.59938" fill="#4B369D"/>
<rect x="454.291" y="79.1777" width="2.1344" height="1.59938" fill="#4B369D"/>
<path d="M475.891 129.897H473.922C471.258 129.897 469.078 127.717 469.078 125.053V123.084C469.078 120.42 471.258 118.24 473.922 118.24H475.891C478.555 118.24 480.735 120.42 480.735 123.084V125.053C480.735 127.717 478.555 129.897 475.891 129.897Z" fill="#D7384E"/>
<path d="M625.504 227.499C625.504 227.499 631.816 257.511 631.281 269.777C630.746 282.042 620.085 300.341 620.085 300.341L613.198 227.504H625.504V227.499Z" fill="#EAC2AB"/>
<path d="M587.831 172.465L589.219 198.317L609.453 206.121C609.453 206.121 597.285 188.317 599.351 172.465C601.405 156.614 587.831 172.465 587.831 172.465Z" fill="#D4A79A"/>
<path d="M569.748 119.572C569.748 119.572 565.342 125.412 569.64 143.312C573.937 161.219 580.915 176.507 586.311 175.425C601.229 172.443 606.465 161.902 611.639 152.852C617.979 141.753 605.389 114.683 605.389 114.683L593.494 108.263L569.748 119.572Z" fill="#EAC2AB"/>
<path d="M553.862 114.751C552.559 110.551 554.847 105.178 557.903 102.582C559.081 101.581 560.567 100.943 562.053 101.091C563.168 101.199 564.261 101.74 565.371 101.558C568.695 101.006 569.093 96.1051 572.178 95.1091C574.478 94.3691 576.686 96.4523 579.031 97.0044C580.801 97.4199 582.634 96.9418 584.415 96.5718C589.43 95.5189 594.08 93.1113 599.22 92.4909C603.557 91.9672 608.082 92.4567 612.003 94.5626C616.101 96.7597 619.038 100.801 620.603 105.468C621.537 108.257 621.838 111.365 621.087 114.222C621.702 111.871 625.931 114.398 626.62 115.32C629.306 118.952 629.767 126.823 628.338 131.047C627.206 134.393 625.345 137.353 624.309 140.745C623.079 144.792 622.567 149.283 620.324 152.869C617.757 156.984 603.932 170.49 599.544 169.352C600.899 165.63 594.296 162.249 594.541 158.247C594.786 154.246 597.284 133.42 577.602 129.521C569.776 127.973 579.816 125.435 571.979 125.748C568.257 125.896 564.528 125.173 561.039 123.756C558.342 122.663 555.718 118.639 554.232 115.696C554.084 115.389 553.965 115.076 553.862 114.751Z" fill="#4B369D"/>
<path d="M593.312 141.741C593.312 141.741 601.491 134.735 600.893 144.212C600.295 153.688 592.64 156.437 592.64 156.437L593.312 141.741Z" fill="#EAC2AB"/>
<path d="M615.179 499.705L610.148 533.833L621.383 536.69L624.519 500.77C624.514 500.77 618.606 498.328 615.179 499.705Z" fill="#D4A79A"/>
<path d="M566.105 550.231C566.105 550.231 574.517 552.462 590.352 552.525C606.186 552.587 623.802 551.938 626.83 549.377C629.864 546.816 630.524 526.798 625.271 527.168C620.017 527.538 618.509 535.279 608.782 529.149C600.443 523.895 594.877 535.29 581.273 539.183C567.67 543.076 562.161 544.636 566.105 550.231Z" fill="#F3AA02"/>
<path d="M587.182 510.229C587.614 508.852 588.929 507.742 590.056 506.615C600.381 496.273 596.675 481.873 594.017 469.243C587.722 439.282 590.05 408.478 589.595 378.102C589.151 348.453 584.358 319.004 576.157 290.654C573.18 280.352 568.94 264.398 583.983 266.419C591.109 267.375 598.019 266.606 604.928 264.774C608.565 263.812 604.712 262.764 608.565 263.812C621.685 267.375 629.187 305.173 627.2 314.559C623.25 333.245 621.912 339.227 622.425 358.687C623.153 386.286 620.888 414.125 625.794 441.212C628.202 454.485 630.837 467.712 633.41 480.945C634.912 488.663 642.073 505.317 638.566 512.643C633.751 522.706 608.685 516.223 600.489 516.576C594.336 516.849 585.707 514.925 587.182 510.229Z" fill="#4B369D"/>
<path d="M589.726 500.884L582.321 534.573L593.329 538.204L598.969 502.591C598.969 502.597 593.243 499.751 589.726 500.884Z" fill="#EAC2AB"/>
<path d="M537.242 547.852C537.242 547.852 545.478 550.663 561.267 551.836C577.056 553.008 594.677 553.595 597.876 551.25C601.081 548.905 603.141 528.989 597.876 528.989C592.611 528.989 590.568 536.605 581.285 529.809C573.334 523.986 566.982 534.966 553.139 537.891C539.303 540.817 533.696 541.989 537.242 547.852Z" fill="#FDC510"/>
<path d="M561.062 510.321C561.592 509.085 562.98 508.163 564.187 507.201C575.212 498.413 572.52 485.009 570.755 473.296C566.572 445.509 571.051 417.5 572.725 389.707C574.352 362.58 571.637 335.357 565.439 308.913C563.185 299.305 560.078 284.45 574.939 287.262C581.979 288.594 588.929 288.332 595.947 287.102C599.641 286.453 595.873 285.253 599.641 286.453C612.476 290.552 617.467 304.24 614.832 312.687C609.584 329.517 607.677 356.24 606.829 374.061C605.623 399.332 601.417 424.632 604.416 449.709C605.885 461.998 607.592 474.252 609.231 486.518C610.187 493.672 616.169 509.347 612.157 515.824C606.647 524.715 582.099 517.179 573.897 516.98C567.739 516.826 559.269 514.515 561.062 510.321Z" fill="#5A54FF"/>
<path d="M546.742 221.966C541.426 225.985 535.768 229.542 529.849 232.598C525.244 234.972 512.757 242.98 507.919 238.08C506.507 236.645 505.892 234.625 505.386 232.678C502.386 221.186 498.032 210.11 493.775 199.04C489.967 189.153 485.396 178.726 485.749 167.912C486.114 156.87 485.453 141.975 484.4 139.271C483.347 136.568 474.713 120.653 474.554 125.605C474.394 130.557 482.716 144.172 478.919 143.665C475.123 143.159 467.012 146.323 467.968 152.077C468.925 157.826 474.998 170.228 474.998 170.228C477.656 181.401 480.456 192.551 483.364 203.662C485.539 211.972 487.77 220.281 490.257 228.506C492.676 236.503 494.919 245.183 501.954 250.487C502.87 251.182 503.843 251.797 504.879 252.292C513.212 256.276 523.007 252.104 531.112 247.676C548.501 238.176 564.984 227.214 581.592 216.44C578.342 213.246 575.092 210.059 571.848 206.866C571.068 206.103 570.215 205.295 569.139 205.136C567.881 204.942 566.68 205.671 565.638 206.405C560.453 210.042 555.917 214.499 551.051 218.557C549.639 219.724 548.199 220.862 546.742 221.966Z" fill="#EAC2AB"/>
<path d="M603.187 230.817C603.187 230.817 586.095 202.136 599.14 196.775C612.185 191.413 625.504 227.504 625.504 227.504L604.029 235.974L603.187 230.817Z" fill="#F44E4E"/>
<path d="M563.68 293.01C563.68 291.826 561.705 261.023 566.048 241.278C570.391 221.534 566.048 204.549 581.057 192.705C596.066 180.86 608.304 196.655 612.254 204.948C616.204 213.241 619.516 239.571 620.074 253.521C620.643 267.779 628.139 297.905 628.441 298.543C634.395 310.922 630.479 310.011 629.961 311.19C626.745 318.521 605.828 319.944 600.802 317.348C589.783 311.656 587.443 308.56 575.565 310.387C570.431 311.178 564.756 309.596 563.231 308.019C561.705 306.443 563.68 293.01 563.68 293.01Z" fill="#D7384E"/>
<path d="M555.308 208.539C555.308 208.539 583.032 178.982 593.659 192.398C604.291 205.813 566.657 233.458 566.657 233.458L549.576 211.249L555.308 208.539Z" fill="#F44E4E"/>
</svg>
